<svg id="126753bd-89b7-44bd-9413-073140318e29" data-name="OBJECTS" xmlns="http://www.w3.org/2000/svg" viewBox="0 0 1660.47 309.97"><defs><style>.\34 168ed5c-c1b9-4460-8add-c5235021caa0,.f2a22887-662b-4d61-ad32-2aa6e21d37c8{fill:#fff;}.\34 168ed5c-c1b9-4460-8add-c5235021caa0{stroke:#b0b0af;stroke-miterlimit:10;}</style></defs><title>dtech-logo-blanco</title><g id="28b6928f-930c-48ec-85df-a08bef8ae02d" data-name="&lt;Grupo&gt;"><g id="a6f7cfe3-8def-4e9e-9472-20defdf839f4" data-name="&lt;Grupo&gt;"><g id="3d0859fc-f50e-4acf-995f-1c6e5cc5aa33" data-name="&lt;Grupo&gt;"><circle class="f2a22887-662b-4d61-ad32-2aa6e21d37c8" cx="193.28" cy="81.67" r="6.58"/></g><g id="d1c6b0b3-4197-4652-924a-3d3b9870560e" data-name="&lt;Grupo&gt;"><circle class="f2a22887-662b-4d61-ad32-2aa6e21d37c8" cx="125.75" cy="237.6" r="6.58"/></g><g id="aa578b4b-39b3-422e-925c-b29043ff8382" data-name="&lt;Grupo&gt;"><circle class="f2a22887-662b-4d61-ad32-2aa6e21d37c8" cx="104.38" cy="133.52" r="6.58"/></g><g id="e365dde6-ceaf-4fb4-9d28-69397838af53" data-name="&lt;Grupo&gt;"><circle class="f2a22887-662b-4d61-ad32-2aa6e21d37c8" cx="164.26" cy="256.39" r="6.58"/></g><g id="5871e43f-42c6-4b27-8aac-579395089b56" data-name="&lt;Grupo&gt;"><circle class="f2a22887-662b-4d61-ad32-2aa6e21d37c8" cx="176.97" cy="205.73" r="6.58"/></g><g id="be422f06-782b-4399-a6e1-473f28b4eeb8" data-name="&lt;Grupo&gt;"><circle class="f2a22887-662b-4d61-ad32-2aa6e21d37c8" cx="138.65" cy="164.38" r="6.58"/></g><g id="aa37b7d7-9b32-46b2-9140-21674739bac7" data-name="&lt;Grupo&gt;"><circle class="f2a22887-662b-4d61-ad32-2aa6e21d37c8" cx="106.15" cy="167.16" r="6.58"/></g><g id="661b1d3d-83a4-4a5b-b6e7-d0dec678f8ad" data-name="&lt;Grupo&gt;"><circle class="f2a22887-662b-4d61-ad32-2aa6e21d37c8" cx="238.05" cy="178.04" r="6.58"/></g><g id="57ede499-4bfd-43f0-ba76-bd98c6202a56" data-name="&lt;Grupo&gt;"><circle class="f2a22887-662b-4d61-ad32-2aa6e21d37c8" cx="73.52" cy="197.26" r="6.58"/></g><g id="afc25d7c-26da-47da-953a-bde8f3a0a382" data-name="&lt;Grupo&gt;"><path class="f2a22887-662b-4d61-ad32-2aa6e21d37c8" d="M108.3,220.8a3.79,3.79,0,0,1-5.69-3.29l.06-38.2a12.65,12.65,0,1,1,7.59-.2l-.05,31.83,155.39-89.68V100.78l-19.11-11-26.13,15L211,128.53a3.8,3.8,0,0,1-1.73,1.94L151,161.89a12.7,12.7,0,1,1-3.67-6.64l57-30.79,9.37-23.71a3.8,3.8,0,0,1,1.64-1.89l23.46-13.49L186.2,54.94,77.34,118.12l0,67.07a12.65,12.65,0,1,1-7.59,0l0-69.26a3.79,3.79,0,0,1,1.89-3.28l107-62.09-19-10.95L53.72,100.78V223.11l105.94,61.16,105.94-61.16V130Zm-3.92-99.93a12.58,12.58,0,0,1,8.19,3L181,84.59a12.69,12.69,0,1,1,3.9,6.51L116.6,130.33a12.64,12.64,0,1,1-12.22-9.46Zm21.37,129.38a12.65,12.65,0,1,1,8.32-22.14l31.08-17.9a12.63,12.63,0,1,1,4.76,6L138,234.59a12.6,12.6,0,0,1-12.27,15.66Zm112.31-59.57a12.57,12.57,0,0,1-7.64-2.59L206.51,201l-7,37.91a3.79,3.79,0,0,1-1.92,2.65L176.43,253a12.64,12.64,0,1,1-4.1-6.35,3.76,3.76,0,0,1,.43-.29l19.6-10.61,7-37.91a3.79,3.79,0,0,1,1.93-2.65L226,181.85a12.65,12.65,0,1,1,12.06,8.83Z"/></g></g><g id="dd4d6364-9fc9-449b-9d9d-4a56c5aa1a71" data-name="&lt;Grupo&gt;"><circle class="f2a22887-662b-4d61-ad32-2aa6e21d37c8" cx="206.76" cy="38.35" r="6.58"/></g><g id="677c6dbe-66a6-4aaa-b6fb-addb7ab61696" data-name="&lt;Grupo&gt;"><path class="f2a22887-662b-4d61-ad32-2aa6e21d37c8" d="M275.8,68.54a3.77,3.77,0,0,1,.35.86,6.42,6.42,0,1,0-1.23-1.89A3.75,3.75,0,0,1,275.8,68.54Z"/></g><g id="93d5c491-dc72-490d-8b62-5bc4791cca4e" data-name="&lt;Grupo&gt;"><path class="f2a22887-662b-4d61-ad32-2aa6e21d37c8" d="M198.45,47.86a12.75,12.75,0,1,0-4-6.48l-15.85,9.2L186.23,55Zm8.31-16.09a6.58,6.58,0,1,1-6.58,6.58A6.58,6.58,0,0,1,206.76,31.77Z"/></g><g id="1a15f346-25cc-40f8-87a9-685af15a133e" data-name="&lt;Grupo&gt;"><path class="f2a22887-662b-4d61-ad32-2aa6e21d37c8" d="M304.25,103.37a3.79,3.79,0,0,0-5.18-1.39l-33.47,19.32v8.76l37.27-21.51A3.79,3.79,0,0,0,304.25,103.37Z"/></g><g id="4a7b038d-b7d6-4875-9307-4dff9332a646" data-name="&lt;Grupo&gt;"><path class="f2a22887-662b-4d61-ad32-2aa6e21d37c8" d="M272.83,74.63a12.77,12.77,0,1,0-4.06-6.42L238.91,85.38l7.6,4.39ZM281,58.4a6.58,6.58,0,1,1-4.83,11,3.55,3.55,0,0,0-1.23-1.89A6.57,6.57,0,0,1,281,58.4Z"/></g></g><path class="4168ed5c-c1b9-4460-8add-c5235021caa0" d="M381.32,71.45c17.75,0,31.32,13.14,31.32,30.45S399,132.34,381.06,132.34H356.7V71.45Zm-17.66,54.28h17.75c13.57,0,24.18-10.18,24.18-23.75S394.8,78.15,381.15,78.15H363.66Z"/><path class="4168ed5c-c1b9-4460-8add-c5235021caa0" d="M463.87,112.07H426.47c1.22,9,7.74,14.61,16.62,14.61a19.14,19.14,0,0,0,14.18-5.74l3.74,4c-4.35,4.87-10.79,7.65-18.44,7.65-13.48,0-22.79-9.48-22.79-23.14s9.4-23.14,22.71-23.14C457.26,86.24,464.57,96.5,463.87,112.07Zm-6.09-5.57c-.43-8.79-6.35-14.35-15.31-14.35-8.7,0-15,5.65-16,14.35Z"/><path class="4168ed5c-c1b9-4460-8add-c5235021caa0" d="M484.31,132.34,466.13,86.5h7.22L488,125.3l14.53-38.8h6.87l-18,45.84Z"/><path class="4168ed5c-c1b9-4460-8add-c5235021caa0" d="M555.38,112.07H518c1.22,9,7.74,14.61,16.62,14.61a19.14,19.14,0,0,0,14.18-5.74l3.74,4c-4.35,4.87-10.79,7.65-18.44,7.65-13.48,0-22.79-9.48-22.79-23.14s9.4-23.14,22.71-23.14C548.77,86.24,556.08,96.5,555.38,112.07Zm-6.09-5.57c-.43-8.79-6.35-14.35-15.31-14.35-8.7,0-15,5.65-16,14.35Z"/><path class="4168ed5c-c1b9-4460-8add-c5235021caa0" d="M567.48,132.34V67.8h6.79v64.55Z"/><path class="4168ed5c-c1b9-4460-8add-c5235021caa0" d="M633.07,109.38c0,13.74-9.66,23.23-23.23,23.23s-23.23-9.48-23.23-23.23,9.66-23.05,23.23-23.05S633.07,95.72,633.07,109.38Zm-39.67.09c0,10.09,6.87,17.05,16.44,17.05s16.44-7,16.44-17.05-6.87-17-16.44-17S593.4,99.46,593.4,109.46Z"/><path class="4168ed5c-c1b9-4460-8add-c5235021caa0" d="M691.87,109.55c0,13.57-8.87,23.05-21.83,23.05-8.18,0-14.44-3.74-17.83-10.09v26.71h-6.79V86.5h6.79v9.92c3.39-6.44,9.66-10.18,17.66-10.18C682.82,86.24,691.87,95.81,691.87,109.55Zm-6.87-.17c0-9.83-6.79-17.05-16.35-17.05s-16.44,7.13-16.44,17.05,6.79,17,16.44,17S685,119.29,685,109.38Z"/><path class="4168ed5c-c1b9-4460-8add-c5235021caa0" d="M779.56,104.07v28.27h-6.79V105.9c0-8.18-4.78-13-12.7-13-9.48.26-15,7-15,16.88v22.53h-6.87V105.9c0-8.18-4.7-13-12.7-13-9.39.26-15,7-15,16.88v22.53h-6.7V86.5h6.7V96.85c3-7.13,9.22-10.53,17.49-10.61,8.61,0,14.53,4.44,16.44,12,2.87-8.09,9.31-11.92,18.09-12C773.21,86.24,779.56,93,779.56,104.07Z"/><path class="4168ed5c-c1b9-4460-8add-c5235021caa0" d="M834.1,112.07H796.69c1.22,9,7.74,14.61,16.62,14.61a19.14,19.14,0,0,0,14.18-5.74l3.74,4c-4.35,4.87-10.79,7.65-18.44,7.65-13.48,0-22.79-9.48-22.79-23.14s9.4-23.14,22.71-23.14C827.49,86.24,834.79,96.5,834.1,112.07ZM828,106.51c-.43-8.79-6.35-14.35-15.31-14.35-8.7,0-15,5.65-16,14.35Z"/><path class="4168ed5c-c1b9-4460-8add-c5235021caa0" d="M887.68,104.07v28.27H880.9V105.9c0-8.09-4.87-12.87-13-12.87-9,.09-14.61,6-15.4,14.7v24.62h-6.79V86.5h6.79V96.59c3.22-7,9.39-10.27,17.75-10.35C881.25,86.24,887.68,93,887.68,104.07Z"/><path class="4168ed5c-c1b9-4460-8add-c5235021caa0" d="M926.48,129.21a19.17,19.17,0,0,1-10.35,3.48c-6.7,0-11.66-4-11.66-13V93.46h-6.61V88h6.61V75.89h6.7V88l14.53-.09v5.57H911.17v25c0,5.57,2.17,7.66,6.09,7.66a13.88,13.88,0,0,0,7.31-2.35Z"/><path class="4168ed5c-c1b9-4460-8add-c5235021caa0" d="M994.33,123.38c-5.57,5.92-12,9.31-18.88,9.31-10.09,0-18.09-7.13-18.09-16.7,0-8.87,6.7-13.48,13.83-17.31-4.18-5.39-6.26-9.92-6.26-14.35,0-7.66,6-13.14,14.88-13.14,8.44,0,14.09,5,14.09,12.27,0,8.26-7.48,12.53-15,16.53,3.74,4.35,8.7,9.4,14.79,15.4a58,58,0,0,0,6.26-11.83l4.61,3.57a60.18,60.18,0,0,1-6.87,12.18l10.53,10.35-3.65,3.83Zm-3.92-3.91c-6.7-6.7-12.18-12.27-16.27-17.05-6,3.31-11,7-11,13,0,6.87,5.57,11.66,12.61,11.66C980.94,127.12,986,124.34,990.42,119.47ZM975.8,96.33c6.7-3.48,12.53-6.79,12.53-12.87,0-4.52-3.31-7.57-8.52-7.57-5.65,0-9.31,3.65-9.31,8.35C970.5,87.8,972.32,91.63,975.8,96.33Z"/><path class="4168ed5c-c1b9-4460-8add-c5235021caa0" d="M1060.36,78.15v54.19h-7V78.15h-19.83v-6.7h46.71v6.7Z"/><path class="4168ed5c-c1b9-4460-8add-c5235021caa0" d="M1122.47,112.07h-37.41c1.22,9,7.74,14.61,16.62,14.61a19.14,19.14,0,0,0,14.18-5.74l3.74,4c-4.35,4.87-10.79,7.65-18.44,7.65-13.48,0-22.79-9.48-22.79-23.14s9.4-23.14,22.71-23.14C1115.86,86.24,1123.16,96.5,1122.47,112.07Zm-6.09-5.57c-.43-8.79-6.35-14.35-15.31-14.35-8.7,0-15,5.65-16,14.35Z"/><path class="4168ed5c-c1b9-4460-8add-c5235021caa0" d="M1169.88,93.11l-3.74,4.78a19.34,19.34,0,0,0-13.66-5.31c-9.48,0-16.27,6.87-16.27,16.88s6.79,17,16.27,17c6,0,11-2.09,14.18-5.92l3.91,4.18c-4.09,5-10.44,7.92-18.35,7.92-13.31,0-22.71-9.48-22.71-23.14s9.48-23.14,22.71-23.14C1159.61,86.24,1165.7,88.76,1169.88,93.11Z"/><path class="4168ed5c-c1b9-4460-8add-c5235021caa0" d="M1225.37,104.07v28.27h-6.79V105.9c0-8.09-4.87-12.87-13-12.87-9.74.09-15.48,7-15.48,16.79v22.53h-6.79V67.8h6.79v29c3.13-7.13,9.39-10.44,17.83-10.53C1218.94,86.24,1225.37,93,1225.37,104.07Z"/><path class="4168ed5c-c1b9-4460-8add-c5235021caa0" d="M1282.44,104.07v28.27h-6.79V105.9c0-8.09-4.87-12.87-13-12.87-9,.09-14.61,6-15.4,14.7v24.62h-6.79V86.5h6.79V96.59c3.22-7,9.39-10.27,17.75-10.35C1276,86.24,1282.44,93,1282.44,104.07Z"/><path class="4168ed5c-c1b9-4460-8add-c5235021caa0" d="M1339.42,109.38c0,13.74-9.66,23.23-23.23,23.23S1293,123.12,1293,109.38s9.66-23.05,23.23-23.05S1339.42,95.72,1339.42,109.38Zm-39.67.09c0,10.09,6.87,17.05,16.44,17.05s16.44-7,16.44-17.05-6.87-17-16.44-17S1299.75,99.46,1299.75,109.46Z"/><path class="4168ed5c-c1b9-4460-8add-c5235021caa0" d="M1351.77,132.34V67.8h6.79v64.55Z"/><path class="4168ed5c-c1b9-4460-8add-c5235021caa0" d="M1417.36,109.38c0,13.74-9.66,23.23-23.23,23.23s-23.23-9.48-23.23-23.23,9.66-23.05,23.23-23.05S1417.36,95.72,1417.36,109.38Zm-39.67.09c0,10.09,6.87,17.05,16.44,17.05s16.44-7,16.44-17.05-6.87-17-16.44-17S1377.69,99.46,1377.69,109.46Z"/><path class="4168ed5c-c1b9-4460-8add-c5235021caa0" d="M1469.2,127.56c0,13.4-9.13,21.83-23.05,21.83a30.85,30.85,0,0,1-18.79-6.61l3.13-5.22a23.49,23.49,0,0,0,15.4,5.83c10,0,16.53-6.09,16.53-15.66v-7c-3.22,6.09-9.13,9.57-16.88,9.57-12.35,0-20.88-9.13-20.88-22.18,0-12.79,8.44-21.83,20.7-21.92,7.83,0,13.74,3.48,17,9.57V86.5h6.79Zm-6.79-19.14c0-9.57-6.52-16.27-15.66-16.27s-15.66,6.79-15.75,16.27c.09,9.4,6.52,16.18,15.75,16.18S1462.42,117.82,1462.42,108.42Z"/><path class="4168ed5c-c1b9-4460-8add-c5235021caa0" d="M1501,138.87c-2.87,7-7.66,10.7-13.75,10.7a14.54,14.54,0,0,1-9.66-3.39l2.87-5.65a10.83,10.83,0,0,0,6.44,2.17c3.57,0,6.52-2.17,8.35-6.44l1.91-4.26-19-45.5h7.13l15.22,37.84L1515,86.5h7Z"/><path class="4168ed5c-c1b9-4460-8add-c5235021caa0" d="M362,216.95l-6.79,15.4h-7.39l27.32-60.89h7.22l27.23,60.89H402l-6.79-15.4Zm16.53-37.58L365,210.25h27.31Z"/><path class="4168ed5c-c1b9-4460-8add-c5235021caa0" d="M451.52,193.11l-3.74,4.78a19.34,19.34,0,0,0-13.66-5.31c-9.48,0-16.27,6.87-16.27,16.88s6.79,17,16.27,17c6,0,11-2.09,14.18-5.92l3.91,4.18c-4.09,5-10.44,7.92-18.35,7.92-13.31,0-22.71-9.48-22.71-23.14s9.48-23.14,22.71-23.14C441.25,186.24,447.34,188.76,451.52,193.11Z"/><path class="4168ed5c-c1b9-4460-8add-c5235021caa0" d="M490.49,225.3c-3.65,5-9.48,7.39-16.79,7.39-9.48,0-15.57-6.09-15.57-14s6.35-13,17.14-13.14h15v-2.7c0-6.7-4.18-10.7-12.27-10.7-5,0-9.74,1.91-14.53,5.22l-2.87-5c5.92-3.91,10.87-6.18,18.7-6.18,11.31,0,17.57,6,17.66,15.83l.09,30.27h-6.61Zm-.09-8.79V211H476.14c-7.66,0-11.66,2.35-11.66,7.39s4.09,8.35,10.53,8.35C482.75,226.78,488.66,222.86,490.4,216.51Z"/><path class="4168ed5c-c1b9-4460-8add-c5235021caa0" d="M554.34,232.34h-6.79v-9.83c-3.39,6.44-9.66,10.18-17.83,10.18-13,0-22.1-9.66-22.1-23.31s9-23.23,22-23.23c8.18,0,14.53,3.74,17.92,10.26V167.8h6.79Zm-6.79-22.79c0-10-6.87-17.22-16.53-17.22s-16.62,7.22-16.62,17.22S521.28,226.6,531,226.6,547.56,219.47,547.56,209.55Z"/><path class="4168ed5c-c1b9-4460-8add-c5235021caa0" d="M610.8,212.07H573.39c1.22,9,7.74,14.61,16.62,14.61a19.14,19.14,0,0,0,14.18-5.74l3.74,4c-4.35,4.87-10.79,7.65-18.44,7.65-13.48,0-22.79-9.48-22.79-23.14s9.4-23.14,22.71-23.14C604.19,186.24,611.49,196.5,610.8,212.07Zm-6.09-5.57c-.43-8.79-6.35-14.35-15.31-14.35-8.7,0-15,5.65-16,14.35Z"/><path class="4168ed5c-c1b9-4460-8add-c5235021caa0" d="M698.22,204.07v28.27h-6.79V205.9c0-8.18-4.78-13-12.7-13-9.48.26-15,7-15,16.88v22.53H656.9V205.9c0-8.18-4.7-13-12.7-13-9.39.26-15,7-15,16.88v22.53h-6.7V186.5h6.7v10.35c3-7.13,9.22-10.53,17.49-10.61,8.61,0,14.53,4.44,16.44,12,2.87-8.09,9.31-11.92,18.09-12C691.87,186.24,698.22,193,698.22,204.07Z"/><path class="4168ed5c-c1b9-4460-8add-c5235021caa0" d="M726,238.87c-2.87,7-7.66,10.7-13.75,10.7a14.54,14.54,0,0,1-9.66-3.39l2.87-5.65a10.83,10.83,0,0,0,6.44,2.17c3.57,0,6.52-2.17,8.35-6.44l1.91-4.26-19-45.5h7.13l15.22,37.84,14.53-37.84h7Z"/></svg>