<svg xmlns="http://www.w3.org/2000/svg" xmlns:xlink="http://www.w3.org/1999/xlink" viewBox="0 0 355.97 355.97"><defs><style>.a9aa248c-9102-4cd0-a146-a38a6f870fc8{fill:#fff;}.\31 e170934-ab6b-4773-af12-fcd33d0b7a16{fill:url(#86aeef5f-90cc-4b14-9223-2ddbb916678b);}.\34 10e9b2f-100f-4041-832d-b39894470d6d{fill:url(#79ed0478-5c4e-4179-9821-fdd421c1418f);}.\31 7bac905-fe25-404e-8945-046d707ef6d5{fill:url(#73e2263a-eb5c-409b-8707-12ddebc8bd23);}.cd95a715-8dec-4af0-994f-637a8eeed0eb{fill:url(#73fc8066-cf09-4a70-968a-0b3695056606);}.\30 9b2dd6d-e7d5-4e92-aa2c-983154be3439{fill:url(#aa4c25f1-a77a-4abb-b1fb-334d9d0768fe);}.a8249f30-e9da-4881-8fb6-90e37bd06a36{fill:url(#3d354df8-da02-425a-a539-093bc206a639);}.\30 51929ce-21c7-4096-b2ac-46d7450305c7{fill:url(#8bb6ba01-75c5-4ac1-80e3-782b76d05328);}.d22bb293-bb1c-4129-814d-89b618bb2c73{fill:url(#b72b888d-ea83-4474-8629-224cfe739dc2);}.d5286c1e-c54d-4758-b253-ad899c639613{fill:url(#5f10bb65-4a43-46a2-8f9f-1f658fecef45);}.\37 6e88662-3060-4514-b2b6-55e2507341d7{fill:url(#74caad1c-73cc-480e-8236-59a6e41a4f15);}.df203bbc-024c-440c-ba9b-6b0578cfdb77{fill:none;}.\35 384c7ee-64b1-41d7-b4e0-5a27e46275c2{fill:url(#23515a9b-afc0-434c-b712-9ee62c1701bb);}.\35 2fff1d2-2e68-4c5f-a4a1-dfb359421d9c{fill:url(#fbfe40e2-022c-4654-bef9-7de38f1c4e3b);}.ad131d87-05ba-43a5-9184-349c81faaaee{fill:url(#12294bb0-fb8c-48de-8b6f-40dd6e6b3f48);}</style><linearGradient id="86aeef5f-90cc-4b14-9223-2ddbb916678b" x1="197.92" y1="334.28" x2="197.92" y2="-3.24" gradientUnits="userSpaceOnUse"><stop offset="0" stop-color="#2c4d8d"/><stop offset="0.06" stop-color="#335a99"/><stop offset="0.28" stop-color="#4c86c2"/><stop offset="0.48" stop-color="#5ea6e0"/><stop offset="0.65" stop-color="#69b9f2"/><stop offset="0.76" stop-color="#6dc0f9"/><stop offset="0.77" stop-color="#6ec2f9"/><stop offset="0.86" stop-color="#7cdcfb"/><stop offset="0.94" stop-color="#84ecfd"/><stop offset="1" stop-color="#87f1fd"/></linearGradient><linearGradient id="79ed0478-5c4e-4179-9821-fdd421c1418f" x1="121.3" y1="334.28" x2="121.3" y2="-3.24" xlink:href="#86aeef5f-90cc-4b14-9223-2ddbb916678b"/><linearGradient id="73e2263a-eb5c-409b-8707-12ddebc8bd23" x1="97.05" y1="334.28" x2="97.05" y2="-3.24" xlink:href="#86aeef5f-90cc-4b14-9223-2ddbb916678b"/><linearGradient id="73fc8066-cf09-4a70-968a-0b3695056606" x1="164.99" y1="334.28" x2="164.99" y2="-3.24" xlink:href="#86aeef5f-90cc-4b14-9223-2ddbb916678b"/><linearGradient id="aa4c25f1-a77a-4abb-b1fb-334d9d0768fe" x1="179.41" y1="334.28" x2="179.41" y2="-3.24" xlink:href="#86aeef5f-90cc-4b14-9223-2ddbb916678b"/><linearGradient id="3d354df8-da02-425a-a539-093bc206a639" x1="135.93" y1="334.28" x2="135.93" y2="-3.24" xlink:href="#86aeef5f-90cc-4b14-9223-2ddbb916678b"/><linearGradient id="8bb6ba01-75c5-4ac1-80e3-782b76d05328" x1="99.06" y1="334.28" x2="99.06" y2="-3.24" xlink:href="#86aeef5f-90cc-4b14-9223-2ddbb916678b"/><linearGradient id="b72b888d-ea83-4474-8629-224cfe739dc2" x1="248.71" y1="334.28" x2="248.71" y2="-3.24" xlink:href="#86aeef5f-90cc-4b14-9223-2ddbb916678b"/><linearGradient id="5f10bb65-4a43-46a2-8f9f-1f658fecef45" x1="62.04" y1="334.28" x2="62.04" y2="-3.24" xlink:href="#86aeef5f-90cc-4b14-9223-2ddbb916678b"/><linearGradient id="74caad1c-73cc-480e-8236-59a6e41a4f15" x1="159.77" y1="334.28" x2="159.77" y2="-3.24" xlink:href="#86aeef5f-90cc-4b14-9223-2ddbb916678b"/><linearGradient id="23515a9b-afc0-434c-b712-9ee62c1701bb" x1="204.44" y1="334.28" x2="204.44" y2="-3.24" xlink:href="#86aeef5f-90cc-4b14-9223-2ddbb916678b"/><linearGradient id="fbfe40e2-022c-4654-bef9-7de38f1c4e3b" x1="302.17" y1="334.28" x2="302.17" y2="-3.24" xlink:href="#86aeef5f-90cc-4b14-9223-2ddbb916678b"/><linearGradient id="12294bb0-fb8c-48de-8b6f-40dd6e6b3f48" x1="280.72" y1="334.28" x2="280.72" y2="-3.24" xlink:href="#86aeef5f-90cc-4b14-9223-2ddbb916678b"/></defs><title>Recurso 2</title><g id="7b952d4a-5221-486c-b502-26dc749c35d5" data-name="Capa 2"><g id="0536c725-e8f9-4872-84b4-03931c02fd54" data-name="OBJECTS"><circle class="a9aa248c-9102-4cd0-a146-a38a6f870fc8" cx="177.99" cy="177.99" r="177.99"/><g id="f1961bdf-5743-4463-9c9b-6fe2eeb265f0" data-name="&lt;Grupo&gt;"><g id="332328ee-5937-4fd7-a7ae-0feba390bb28" data-name="&lt;Grupo&gt;"><circle id="368ea8d9-98f2-4e6e-997f-e2455319d311" data-name="&lt;Trazado&gt;" class="1e170934-ab6b-4773-af12-fcd33d0b7a16" cx="197.92" cy="100.81" r="7.46"/><circle id="d3453efe-77d2-43ca-9c97-60a587bf422a" data-name="&lt;Trazado&gt;" class="410e9b2f-100f-4041-832d-b39894470d6d" cx="121.3" cy="277.72" r="7.46"/><circle id="9dcfcf91-89cc-4322-befb-5dd1541bd3c4" data-name="&lt;Trazado&gt;" class="17bac905-fe25-404e-8945-046d707ef6d5" cx="97.05" cy="159.63" r="7.46"/><circle id="e21e5a08-ddd5-4552-8601-b7f38b4d01d5" data-name="&lt;Trazado&gt;" class="cd95a715-8dec-4af0-994f-637a8eeed0eb" cx="164.99" cy="299.03" r="7.46"/><circle id="d2c03b0d-c612-4489-bdf2-8a05c7768238" data-name="&lt;Trazado&gt;" class="09b2dd6d-e7d5-4e92-aa2c-983154be3439" cx="179.41" cy="241.56" r="7.46"/><circle id="adcc4f90-6f28-493f-a9f1-3eff6d067132" data-name="&lt;Trazado&gt;" class="a8249f30-e9da-4881-8fb6-90e37bd06a36" cx="135.93" cy="194.64" r="7.46"/><circle id="46b6fa6b-f30e-46b4-9d29-b864d896b205" data-name="&lt;Trazado&gt;" class="051929ce-21c7-4096-b2ac-46d7450305c7" cx="99.06" cy="197.8" r="7.46"/><circle id="315ee59f-3d7d-4b34-a394-6febc78752c2" data-name="&lt;Trazado&gt;" class="d22bb293-bb1c-4129-814d-89b618bb2c73" cx="248.71" cy="210.14" r="7.46"/><circle id="3eeb5384-f171-4fd3-989e-18145c3392a8" data-name="&lt;Trazado&gt;" class="d5286c1e-c54d-4758-b253-ad899c639613" cx="62.04" cy="231.95" r="7.46"/><path id="08adc218-a921-4a76-99ee-15d3b87f8288" data-name="&lt;Trazado compuesto&gt;" class="76e88662-3060-4514-b2b6-55e2507341d7" d="M101.5,258.66A4.3,4.3,0,0,1,95,254.92l.07-43.34a14.35,14.35,0,1,1,8.61-.23l-.06,36.11L280,145.73V122.49L258.27,110l-29.64,17L218,154a4.31,4.31,0,0,1-2,2.21l-66,35.63a14.41,14.41,0,1,1-4.17-7.54l64.71-34.93,10.63-26.9A4.31,4.31,0,0,1,223,120.3L249.65,105,189.88,70.49,66.38,142.17l0,76.1a14.35,14.35,0,1,1-8.61,0l0-78.58A4.3,4.3,0,0,1,59.92,136L181.28,65.52,159.77,53.1,39.58,122.49V261.27l120.19,69.39L280,261.27V155.67ZM97,145.29a14.27,14.27,0,0,1,9.29,3.43L184,104.12a14.4,14.4,0,1,1,4.42,7.39L110.92,156A14.34,14.34,0,1,1,97,145.29ZM121.3,292.07a14.35,14.35,0,1,1,9.44-25.12L166,246.64a14.33,14.33,0,1,1,5.4,6.82L135.22,274.3a14.29,14.29,0,0,1-13.92,17.77Zm127.41-67.58a14.26,14.26,0,0,1-8.67-2.94L212.92,236.2l-8,43a4.3,4.3,0,0,1-2.18,3l-24,13a14.35,14.35,0,1,1-4.65-7.2,4.27,4.27,0,0,1,.49-.33l22.23-12,8-43a4.31,4.31,0,0,1,2.19-3l28-15.14a14.35,14.35,0,1,1,13.68,10Z"/></g><circle id="f082143c-da54-4296-bdeb-a1648c45f0ae" data-name="&lt;Trazado&gt;" class="df203bbc-024c-440c-ba9b-6b0578cfdb77" cx="213.21" cy="51.66" r="7.46"/><path id="47a831b5-4373-475e-b873-267ecca61690" data-name="&lt;Trazado&gt;" class="df203bbc-024c-440c-ba9b-6b0578cfdb77" d="M291.54,85.91a4.28,4.28,0,0,1,.4,1,7.28,7.28,0,1,0-1.4-2.14A4.26,4.26,0,0,1,291.54,85.91Z"/><path id="086aea49-20fb-4cfd-a9de-4eb1a4405148" data-name="&lt;Trazado compuesto&gt;" class="5384c7ee-64b1-41d7-b4e0-5a27e46275c2" d="M203.78,62.45a14.46,14.46,0,1,0-4.49-7.35l-18,10.44,8.6,5Zm9.43-18.25a7.46,7.46,0,1,1-7.46,7.46A7.47,7.47,0,0,1,213.21,44.2Z"/><path id="ad6b339a-6363-4139-9a66-8dad058abe37" data-name="&lt;Trazado&gt;" class="52fff1d2-2e68-4c5f-a4a1-dfb359421d9c" d="M323.81,125.42a4.3,4.3,0,0,0-5.88-1.58l-38,21.92v9.94l42.28-24.4A4.3,4.3,0,0,0,323.81,125.42Z"/><path id="c1560334-9fbd-4872-ae56-4c8be9072f74" data-name="&lt;Trazado compuesto&gt;" class="ad131d87-05ba-43a5-9184-349c81faaaee" d="M288.17,92.82a14.48,14.48,0,1,0-4.61-7.28L249.68,105l8.62,5Zm9.25-18.41a7.46,7.46,0,1,1-5.48,12.48,4,4,0,0,0-1.4-2.14,7.46,7.46,0,0,1,6.88-10.34Z"/></g></g></g></svg>